<?xml version="1.0" encoding="utf-8"?>
<!-- Generator: Adobe Illustrator 24.0.1, SVG Export Plug-In . SVG Version: 6.00 Build 0)  -->
<svg version="1.1" id="Layer_1" xmlns="http://www.w3.org/2000/svg" xmlns:xlink="http://www.w3.org/1999/xlink" x="0px" y="0px"
	 viewBox="0 0 169 57" style="enable-background:new 0 0 169 57;" xml:space="preserve">
<style type="text/css">
	.st0{fill:#FFFFFF;}
	.st1{fill:#F8AA00;}
</style>
<rect x="94" y="12" class="st0" width="71" height="32"/>
<g>
	<path class="st1" d="M121.5,56.68c-0.12-0.17-0.29-0.09-0.44-0.09c-2.75,0.02-5.49-0.15-8.24-0.21c-1.88-0.04-3.76-0.16-5.64-0.28
		c-1.92-0.13-3.84-0.27-5.75-0.49c-1.63-0.19-3.29-0.29-4.84-0.88c-3.51-1.35-5.63-3.91-6.45-7.57c-0.46-2.06-0.75-4.14-0.95-6.23
		c-0.2-2.06-0.32-4.13-0.42-6.19c-0.17-3.53-0.14-7.06-0.06-10.59c0.05-1.94,0.16-3.88,0.34-5.82c0.13-1.38,0.22-2.76,0.42-4.12
		c0.33-2.24,0.45-4.54,1.53-6.6c1.6-3.05,4.1-4.85,7.52-5.4c2.02-0.33,4.05-0.56,6.09-0.74c1.63-0.14,3.27-0.23,4.91-0.32
		c3.89-0.21,7.78-0.36,11.68-0.38c0.1,0,0.23,0.05,0.3-0.09c4.54,0,9.08,0,13.62,0c0.13,0.18,0.33,0.09,0.49,0.09
		c1.1,0.02,2.21-0.01,3.31,0.03c3.32,0.11,6.63,0.24,9.95,0.37c1.16,0.05,2.32,0.12,3.48,0.21c1.35,0.1,2.69,0.23,4.03,0.37
		c1.15,0.12,2.29,0.25,3.41,0.58c3.44,1,5.84,3.15,7.02,6.55c0.57,1.62,0.77,3.34,1.03,5.04c0.3,1.91,0.49,3.84,0.64,5.76
		c0.12,1.59,0.24,3.18,0.22,4.78c0,0.13-0.05,0.29,0.08,0.4c0,2.43,0,4.86,0,7.29c-0.13,0.07-0.09,0.19-0.09,0.3
		c-0.02,0.8-0.04,1.59-0.08,2.39c-0.1,2.07-0.27,4.12-0.48,6.18c-0.23,2.14-0.51,4.26-0.97,6.36c-0.81,3.65-3,6.11-6.48,7.39
		c-1.99,0.73-4.11,0.83-6.2,1.06c-1.56,0.17-3.14,0.29-4.71,0.38c-2.02,0.12-4.04,0.25-6.07,0.28c-1.87,0.03-3.73,0.17-5.6,0.12
		c-0.16,0-0.35-0.09-0.49,0.09C132.24,56.68,126.87,56.68,121.5,56.68z M134.06,22.27c0-2.52-0.01-4.94,0.01-7.35
		c0-0.38-0.08-0.53-0.5-0.52c-1.28,0.03-2.56,0.02-3.83,0c-0.38-0.01-0.48,0.1-0.48,0.48c0.01,3.55,0.01,7.09,0.01,10.64
		c0,4.3,0,8.59,0,12.89c0,0.23-0.07,0.46,0.34,0.45c1.25-0.03,2.49-0.02,3.74,0c0.28,0,0.36-0.1,0.34-0.36c-0.02-0.31,0-0.62,0-1.01
		c1.48,1.27,3.07,1.8,4.93,1.66c2.92-0.23,4.95-1.66,6.12-4.33c0.59-1.35,0.81-2.77,0.88-4.23c0.09-1.74-0.04-3.45-0.62-5.09
		c-1.3-3.72-4.2-5.16-7.76-4.76C136.06,20.88,135.02,21.4,134.06,22.27z M157.75,31.94c1.55,0,3.1,0,4.65,0
		c0.19,0,0.4,0.07,0.44-0.27c0.23-1.72,0.25-3.43-0.1-5.14c-0.94-4.51-4.23-6.32-8.38-5.76c-2.89,0.39-4.74,2.18-5.82,4.81
		c-0.88,2.14-0.96,4.38-0.64,6.63c0.28,1.96,1.09,3.69,2.6,5.03c1.52,1.35,3.33,1.86,5.32,1.93c2.57,0.1,4.84-0.62,6.76-2.37
		c0.29-0.26,0.28-0.41,0.06-0.69c-0.64-0.82-1.27-1.64-1.86-2.49c-0.25-0.36-0.42-0.35-0.73-0.09c-0.99,0.8-2.08,1.31-3.4,1.34
		c-1.97,0.04-3.24-0.76-3.82-2.46c-0.14-0.42-0.02-0.47,0.36-0.47C154.71,31.95,156.23,31.94,157.75,31.94z M125.98,27.36
		c0-2.18-0.01-4.07,0.01-5.95c0-0.31-0.08-0.41-0.4-0.4c-1.33,0.02-2.65,0.02-3.98,0c-0.39-0.01-0.51,0.08-0.5,0.49
		c0.02,3.23,0.01,6.46,0.01,9.68c0,0.48-0.03,0.96-0.1,1.43c-0.19,1.29-0.98,2.05-2.2,2.12c-1.54,0.08-2.41-0.48-2.75-1.8
		c-0.08-0.32-0.14-0.65-0.14-0.99c0-3.48-0.01-6.97,0-10.45c0-0.37-0.09-0.48-0.47-0.48c-1.33,0.02-2.65,0.03-3.98,0
		c-0.38-0.01-0.44,0.12-0.44,0.46c0.01,3.18,0.01,6.36,0,9.54c0,0.86,0.04,1.72,0.2,2.57c0.46,2.49,1.73,4.33,4.21,5.17
		c1.29,0.44,2.62,0.49,3.97,0.4c4.2-0.27,6.19-2.92,6.49-6.57C126.06,30.74,125.96,28.9,125.98,27.36z M105.09,30.01
		c0-2.8,0.01-5.59-0.01-8.39c0-0.33,0.07-0.43,0.42-0.43c1.33,0.02,2.65,0,3.98,0.02c0.32,0,0.48-0.06,0.57-0.4
		c0.32-1.23,0.66-2.45,1.03-3.67c0.1-0.32,0.03-0.39-0.28-0.39c-5.29,0.01-10.58,0.01-15.87,0c-0.28,0-0.39,0.07-0.38,0.37
		c0.02,1.23,0.02,2.46,0,3.69c0,0.32,0.1,0.4,0.4,0.39c1.52-0.01,3.04,0.01,4.55-0.02c0.45-0.01,0.54,0.13,0.54,0.55
		c-0.01,5.54-0.01,11.09-0.02,16.63c0,0.36,0.07,0.49,0.47,0.49c1.37-0.03,2.75-0.03,4.12,0c0.42,0.01,0.49-0.13,0.49-0.51
		C105.08,35.57,105.09,32.79,105.09,30.01z"/>
	<path class="st1" d="M0.65,38.85c-0.01-0.13-0.02-0.25-0.02-0.38c0-7.11,0-14.23,0-21.34c0-0.11,0.01-0.22,0.02-0.33
		c1.42,0,2.85,0.01,4.27-0.01c0.38-0.01,0.56,0.11,0.71,0.44c1.97,4.17,3.96,8.34,5.95,12.51c0.07,0.16,0.15,0.31,0.26,0.53
		c0.35-0.74,0.68-1.43,1.01-2.12c1.72-3.64,3.45-7.28,5.16-10.92c0.16-0.35,0.35-0.45,0.72-0.44c1.29,0.02,2.59,0.02,3.88,0
		c0.3,0,0.41,0.07,0.41,0.39c-0.01,7.1-0.01,14.19,0,21.29c0,0.32-0.1,0.4-0.4,0.39c-1.36-0.02-2.72-0.02-4.08,0
		c-0.37,0.01-0.44-0.11-0.44-0.45c0.01-3.37,0.01-6.74,0.01-10.12c0-0.16,0-0.31,0-0.49c-0.22,0.05-0.21,0.25-0.27,0.37
		c-1.43,3.16-2.85,6.33-4.26,9.5c-0.14,0.32-0.3,0.46-0.66,0.45c-0.73-0.03-1.47-0.03-2.21,0c-0.35,0.01-0.5-0.12-0.63-0.42
		c-1.43-3.21-2.88-6.42-4.32-9.63c-0.04-0.09-0.08-0.17-0.2-0.26c0,0.16,0,0.32,0,0.48c0,3.36-0.01,6.71,0.01,10.07
		c0,0.39-0.09,0.51-0.49,0.5C3.59,38.83,2.12,38.85,0.65,38.85z"/>
	<path class="st1" d="M80.03,31.93c-1.55,0-3.1,0.01-4.65-0.01c-0.32,0-0.4,0.06-0.3,0.39c0.64,2.07,2.3,2.74,4.35,2.56
		c1.16-0.1,2.12-0.66,3-1.36c0.3-0.24,0.42-0.17,0.61,0.1c0.63,0.88,1.28,1.75,1.95,2.61c0.17,0.22,0.13,0.33-0.05,0.5
		c-1.69,1.54-3.66,2.38-5.97,2.42c-1.37,0.02-2.71-0.08-3.99-0.6c-2.1-0.85-3.55-2.38-4.26-4.51c-1-2.98-0.91-5.97,0.35-8.86
		c1-2.27,2.7-3.84,5.2-4.29c2.54-0.46,4.94-0.14,6.86,1.82c1.24,1.27,1.79,2.87,2.02,4.6c0.19,1.38,0.14,2.77,0,4.15
		c-0.03,0.34-0.13,0.49-0.52,0.49C83.1,31.91,81.56,31.93,80.03,31.93z M77.8,28.17c0.65,0,1.31,0.01,1.96,0
		c1-0.01,0.96,0.2,0.77-0.91c-0.23-1.3-1.01-2.09-2.23-2.29c-1.11-0.18-2.17,0.38-2.78,1.45c-0.23,0.4-0.37,0.84-0.51,1.28
		c-0.1,0.32-0.07,0.49,0.35,0.48C76.17,28.15,76.99,28.17,77.8,28.17z"/>
	<path class="st1" d="M42.29,29.72c0.03,2.07-0.24,3.9-1.16,5.59c-1.2,2.2-3.08,3.42-5.56,3.74c-1.39,0.18-2.77,0.14-4.12-0.24
		c-2.29-0.66-3.87-2.15-4.69-4.36c-1.07-2.87-1.14-5.81-0.14-8.71c1.01-2.9,3.1-4.55,6.16-4.94c1.57-0.2,3.13-0.13,4.62,0.43
		c2.59,0.98,3.97,2.98,4.59,5.59C42.23,27.83,42.32,28.86,42.29,29.72z M30.84,29.97c-0.01,0.83,0.03,1.59,0.22,2.33
		c0.4,1.59,1.5,2.49,3.07,2.5c1.57,0.01,2.62-0.83,3.06-2.43c0.14-0.51,0.21-1.03,0.24-1.55c0.09-1.34,0.01-2.68-0.52-3.94
		c-0.52-1.23-1.5-1.87-2.8-1.84c-1.32,0.04-2.27,0.65-2.78,1.89C30.93,27.94,30.84,28.98,30.84,29.97z"/>
	<path class="st1" d="M51.36,32.05c0.42-1.4,0.8-2.66,1.17-3.92c0.67-2.24,1.34-4.47,2-6.71c0.08-0.29,0.18-0.41,0.51-0.41
		c1.47,0.02,2.94,0.01,4.41,0c0.3,0,0.42,0.02,0.3,0.38c-1.97,5.71-3.93,11.42-5.89,17.13c-0.08,0.25-0.2,0.34-0.47,0.34
		c-1.31-0.02-2.62-0.02-3.93,0c-0.37,0.01-0.52-0.11-0.64-0.45c-1.85-5.43-3.72-10.85-5.58-16.28c-0.12-0.36-0.25-0.72-0.38-1.12
		c1.69,0,3.33,0.01,4.97-0.01c0.35,0,0.32,0.27,0.38,0.45c0.98,3.26,1.94,6.52,2.91,9.77C51.17,31.46,51.25,31.69,51.36,32.05z"/>
	<path class="st1" d="M61.65,27.74c0-2.06,0.02-4.12-0.01-6.18c-0.01-0.48,0.14-0.57,0.58-0.56c1.25,0.03,2.49,0.03,3.74,0
		c0.39-0.01,0.5,0.08,0.5,0.49c-0.02,3.75-0.01,7.51-0.01,11.26c0,0.16,0,0.32,0,0.48c0.02,1.07,0.16,1.24,1.22,1.19
		c0.51-0.02,0.6,0.14,0.59,0.61c-0.03,1.18-0.01,2.36-0.01,3.54c0,0.16,0.07,0.38-0.22,0.38c-1.13-0.01-2.26,0.07-3.37-0.25
		c-1.65-0.47-2.5-1.61-2.81-3.22c-0.14-0.72-0.2-1.45-0.19-2.19C61.66,31.44,61.65,29.59,61.65,27.74z"/>
	<path class="st1" d="M64.08,13.62c1.6,0,2.76,1.17,2.75,2.79c0,1.59-1.2,2.78-2.79,2.78c-1.6,0-2.78-1.17-2.78-2.78
		C61.27,14.78,62.44,13.62,64.08,13.62z"/>
	<path class="st1" d="M140.69,29.97c0.02,1.04-0.04,2.01-0.38,2.94c-0.42,1.15-1.28,1.78-2.49,1.82c-0.43,0.02-0.86,0.04-1.29-0.04
		c-1.26-0.25-1.95-1.09-2.22-2.29c-0.37-1.62-0.4-3.26,0.04-4.87c0.55-2.02,2.06-2.75,4.11-2.29c1.08,0.24,1.63,1.05,1.93,2.06
		C140.65,28.18,140.73,29.1,140.69,29.97z"/>
	<path class="st1" d="M155.49,28.11c-0.81,0-1.63-0.02-2.44,0.01c-0.37,0.01-0.43-0.1-0.31-0.44c0.13-0.38,0.24-0.76,0.42-1.11
		c0.64-1.25,1.73-1.78,3.08-1.53c1.02,0.2,1.82,1.16,1.98,2.42c0.01,0.11,0.01,0.23,0.04,0.33c0.09,0.28-0.06,0.32-0.29,0.32
		C157.15,28.11,156.32,28.11,155.49,28.11z"/>
</g>
</svg>
